<svg width="87" height="28" viewBox="0 0 87 28" fill="none" xmlns="http://www.w3.org/2000/svg">
<g clip-path="url(#clip0_826_12323)">
<path d="M0 0V14.407C0 21.7173 6.01163 27.6449 13.4307 27.6449H33.3734V13.2378C33.3734 5.92531 27.3595 0 19.9427 0H0Z" fill="#E9A569"/>
<path d="M7.61572 6.2002H12.526C15.0214 6.2002 16.956 6.84535 18.3343 8.13567C19.7105 9.42598 20.4008 11.2514 20.4008 13.6096C20.4008 15.9678 19.7082 17.8108 18.3232 19.1386C16.9381 20.4663 14.999 21.1313 12.5037 21.1313H7.61572V6.2002ZM17.9546 13.6536C17.9546 11.9383 17.4787 10.6194 16.5271 9.70342C15.5754 8.78523 14.2127 8.32723 12.4389 8.32723H9.95023V19.0064H12.459C14.2328 19.0064 15.591 18.544 16.536 17.6192C17.481 16.6945 17.9523 15.3733 17.9523 13.6558L17.9546 13.6536Z" fill="#081D3C"/>
<path d="M22.2822 15.9377C22.2822 14.8632 22.4989 13.9076 22.9301 13.073C23.3635 12.2363 23.9577 11.5801 24.715 11.1023C25.4723 10.6245 26.3414 10.3867 27.3221 10.3867C28.3028 10.3867 29.1852 10.6289 29.9291 11.1133C30.6708 11.5978 31.2516 12.2782 31.6694 13.1501C32.0872 14.0243 32.2971 15.0349 32.2971 16.1843V16.6093H24.4671C24.5542 17.5209 24.8893 18.2365 25.4723 18.7583C26.0554 19.2802 26.8306 19.5422 27.7979 19.5422C28.9663 19.5422 30.0118 19.1239 30.9344 18.2893L32.0157 19.7008C31.4974 20.2534 30.854 20.6828 30.09 20.9889C29.326 21.2949 28.5173 21.4469 27.6683 21.4469C26.6005 21.4469 25.6645 21.2157 24.8558 20.7533C24.0471 20.2909 23.4171 19.6457 22.9636 18.8178C22.5101 17.9899 22.2822 17.0299 22.2822 15.9421V15.9377ZM29.279 13.051C28.7965 12.5732 28.1643 12.3354 27.3869 12.3354C26.6094 12.3354 25.9169 12.5776 25.3964 13.062C24.8781 13.5464 24.5676 14.2004 24.4671 15.0217H30.1347C30.0475 14.185 29.7638 13.5288 29.2813 13.051H29.279Z" fill="#081D3C"/>
<path d="M34.3521 10.7213H36.385L36.4922 12.4234C36.8385 11.8267 37.2897 11.3643 37.8438 11.0362C38.3978 10.7081 39.0144 10.543 39.6935 10.543C40.0688 10.543 40.4441 10.6024 40.8194 10.7213L40.4084 12.7801C40.1045 12.6766 39.7873 12.6238 39.4567 12.6238C38.6212 12.6238 37.9242 12.9078 37.3702 13.4737C36.8139 14.0418 36.5369 14.7882 36.5369 15.713V21.1297H34.3521V10.7191V10.7213Z" fill="#081D3C"/>
<path d="M41.5967 15.9377C41.5967 14.8632 41.8134 13.9076 42.2445 13.073C42.6779 12.2363 43.2722 11.5801 44.0295 11.1023C44.7868 10.6245 45.6558 10.3867 46.6365 10.3867C47.6172 10.3867 48.4997 10.6289 49.2436 11.1133C49.9853 11.5978 50.5661 12.2782 50.9839 13.1501C51.4016 14.0243 51.6116 15.0349 51.6116 16.1843V16.6093H43.7815C43.8686 17.5209 44.2037 18.2365 44.7868 18.7583C45.3699 19.2802 46.1451 19.5422 47.1124 19.5422C48.2807 19.5422 49.3262 19.1239 50.2489 18.2893L51.3301 19.7008C50.8118 20.2534 50.1684 20.6828 49.4044 20.9889C48.6404 21.2949 47.8317 21.4469 46.9828 21.4469C45.915 21.4469 44.9789 21.2157 44.1702 20.7533C43.3615 20.2909 42.7315 19.6457 42.278 18.8178C41.8245 17.9899 41.5967 17.0299 41.5967 15.9421V15.9377ZM48.5957 13.051C48.1132 12.5732 47.481 12.3354 46.7036 12.3354C45.9261 12.3354 45.2336 12.5776 44.7131 13.062C44.1948 13.5464 43.8843 14.2004 43.7837 15.0217H49.4513C49.3642 14.185 49.0805 13.5288 48.598 13.051H48.5957Z" fill="#081D3C"/>
<path d="M53.6673 10.7207H55.7002L55.7873 12.2422C56.1336 11.6609 56.605 11.2051 57.2037 10.877C57.8024 10.5489 58.4837 10.3838 59.2477 10.3838C60.4452 10.3838 61.37 10.7691 62.0268 11.5376C62.6836 12.306 63.012 13.3762 63.012 14.7502V21.1313H60.8272V15.065C60.8272 14.1843 60.635 13.5171 60.253 13.0613C59.871 12.6055 59.3192 12.3787 58.5977 12.3787C57.7622 12.3787 57.0942 12.6848 56.596 13.2969C56.0978 13.909 55.8499 14.7303 55.8499 15.7586V21.1313H53.665V10.7207H53.6673Z" fill="#081D3C"/>
<path d="M64.6336 10.7211H66.4074V7.29492H68.5922V10.7211H71.4919V12.5575H68.5922V17.6615C68.5922 18.3176 68.7084 18.7954 68.9385 19.0949C69.1686 19.3944 69.5305 19.5419 70.0197 19.5419C70.567 19.5419 71.0786 19.3261 71.5544 18.8923L72.4838 20.3258C71.7198 21.0722 70.7882 21.4443 69.6935 21.4443C68.5989 21.4443 67.8125 21.1273 67.2496 20.4931C66.6866 19.859 66.4051 18.9298 66.4051 17.7055V12.5575H64.6313V10.7211H64.6336Z" fill="#081D3C"/>
<path d="M73.3726 18.1081C73.3726 16.9895 73.7725 16.1087 74.5723 15.4658C75.372 14.825 76.5158 14.5035 78.0014 14.5035C78.6783 14.5035 79.3999 14.563 80.1639 14.6819V14.301C80.1639 12.927 79.3418 12.2422 77.6976 12.2422C76.5583 12.2422 75.5843 12.5637 74.7778 13.2044L73.8261 11.6829C74.9655 10.8176 76.3148 10.3838 77.8719 10.3838C79.2703 10.3838 80.3516 10.7229 81.1156 11.4033C81.8796 12.0837 82.2616 13.0261 82.2616 14.2349V21.1291H80.3359L80.2488 19.7859C79.9159 20.3078 79.4602 20.7151 78.8749 21.0058C78.2918 21.2964 77.6239 21.4417 76.8733 21.4417C75.8211 21.4417 74.9722 21.1401 74.331 20.5346C73.6899 19.929 73.3682 19.1209 73.3682 18.1059L73.3726 18.1081ZM75.4927 17.998C75.4927 18.5506 75.6625 18.9756 76.002 19.2751C76.3416 19.5745 76.813 19.722 77.4184 19.722C77.9366 19.722 78.4035 19.6186 78.8146 19.4094C79.2256 19.2002 79.554 18.9162 79.7998 18.5594C80.0455 18.2005 80.1684 17.813 80.1684 17.3946V16.2298C79.4468 16.1109 78.8057 16.0515 78.2427 16.0515C77.3625 16.0515 76.6856 16.2166 76.2098 16.5447C75.7339 16.8728 75.4949 17.3572 75.4949 18.0002L75.4927 17.998Z" fill="#081D3C"/>
<path d="M84.8154 6.2002H87.0003V21.1313H84.8154V6.2002Z" fill="#081D3C"/>
</g>
<defs>
<clipPath id="clip0_826_12323">
<rect width="87" height="27.6449" fill="white"/>
</clipPath>
</defs>
</svg>